<?xml version="1.0" encoding="UTF-8" standalone="no"?>
<svg
   width="43.391148mm"
   height="43.391148mm"
   viewBox="0 0 43.391146 43.391147"
   version="1.1"
   id="svg124"
   sodipodi:docname="favicon.svg"
   inkscape:version="1.1.2 (0a00cf5339, 2022-02-04, custom)"
   xmlns:inkscape="http://www.inkscape.org/namespaces/inkscape"
   xmlns:sodipodi="http://sodipodi.sourceforge.net/DTD/sodipodi-0.dtd"
   xmlns="http://www.w3.org/2000/svg"
   xmlns:svg="http://www.w3.org/2000/svg"
   xmlns:rdf="http://www.w3.org/1999/02/22-rdf-syntax-ns#"
   xmlns:cc="http://creativecommons.org/ns#"
   xmlns:dc="http://purl.org/dc/elements/1.1/">
  <sodipodi:namedview
     id="namedview20"
     pagecolor="#ffffff"
     bordercolor="#666666"
     borderopacity="1.0"
     inkscape:pageshadow="2"
     inkscape:pageopacity="0.0"
     inkscape:pagecheckerboard="0"
     inkscape:document-units="mm"
     showgrid="false"
     inkscape:zoom="2.7561305"
     inkscape:cx="81.817605"
     inkscape:cy="79.459226"
     inkscape:window-width="1366"
     inkscape:window-height="703"
     inkscape:window-x="0"
     inkscape:window-y="0"
     inkscape:window-maximized="1"
     inkscape:current-layer="svg124" />
  <defs
     id="defs118" />
  <metadata
     id="metadata121">
    <rdf:RDF>
      <cc:Work
         rdf:about="">
        <dc:format>image/svg+xml</dc:format>
        <dc:type
           rdf:resource="http://purl.org/dc/dcmitype/StillImage" />
      </cc:Work>
    </rdf:RDF>
  </metadata>
  <rect
     style="fill:#1a1a1a;fill-opacity:1;stroke:none;stroke-width:0.396875;stroke-miterlimit:4;stroke-dasharray:none;stroke-opacity:1"
     id="rect1001"
     width="43.391148"
     height="43.391148"
     x="-43.391148"
     y="0"
     ry="21.695574"
     transform="rotate(-90)" />
  <g
     id="g869"
     transform="translate(-6.144132,3.3033176)"
     style="stroke:none">
    <path
       id="path843"
       style="fill:#1a1a1a;fill-opacity:1;stroke:none;stroke-width:1.85208;stroke-linecap:butt;stroke-linejoin:miter;stroke-miterlimit:4;stroke-dasharray:none;stroke-opacity:1"
       d="m 18.008251,0.4809719 c -0.04228,-0.0043 -0.08416,-0.0026 -0.126091,0.0062 -0.717254,0.150305 -0.740523,2.070159 -0.740523,2.070159 0,0 -1.163771,-0.6666 -1.522388,-0.294556 -0.642078,0.666105 0.627352,2.703711 0.627352,2.703711 0.0044,-0.0063 0.0091,-0.01184 0.01344,-0.01809 -0.310846,0.582028 -0.489238,1.195541 -0.485242,1.717726 -4.2e-4,0.01118 3.21e-4,0.02193 0,0.03307 l -2.227254,1.733744 2.666504,0.304374 c -0.967826,0.12138 -1.108321,2.9349331 0.08785,3.1197071 0.726735,0.112242 0.986452,-0.235736 1.081071,-0.54002 0.114901,0.391713 0.178611,0.793846 0.148311,1.218531 -0.167544,1.580565 -3.475401,13.758626 7.54631,15.577861 0.09107,0.458194 0.23791,0.945669 0.471289,1.267106 l -0.01654,0.06304 -0.776696,2.936772 -0.07028,0.2651 -0.0124,0.04703 -1.766818,1.075387 -0.457853,0.280086 0.558105,0.91829 0.459921,-0.280086 0.80977,-0.494027 -0.256832,0.973584 -0.137976,0.519348 1.039213,0.275436 0.137976,-0.519865 0.318843,-1.205095 0.696082,0.909506 0.325561,0.426847 0.854212,-0.65474 -0.325562,-0.426848 -1.203027,-1.570447 0.0708,-0.2651 0.77618,-2.936255 0.02429,-0.09043 c 0.516639,-0.246124 1.046518,-0.845256 1.384411,-1.278991 0.304662,0.0051 0.602466,0.0046 0.894003,0 0.257172,0.487562 0.70763,1.234248 1.207161,1.570446 l 0.02687,0.232028 0.316776,2.755904 0.03669,0.319877 -1.252637,1.646928 -0.325562,0.426847 0.855762,0.650607 0.325045,-0.426848 0.574642,-0.754993 0.114721,0.999939 0.0615,0.535885 1.067119,-0.12454 -0.06098,-0.533301 -0.141594,-1.239201 0.977718,0.593246 0.460437,0.278019 0.558106,-0.91829 -0.460437,-0.280087 -1.68982,-1.02371 -0.03152,-0.272851 -0.316777,-2.755388 -0.02532,-0.219625 c 0.402742,-0.410155 0.685689,-1.176652 0.845943,-1.714107 10.506405,-1.660021 9.130712,-10.791073 9.130709,-10.791073 2.51161,-5.132221 0.02088,-11.9083621 -4.291727,-13.9376501 0.225661,9.0960681 -10.319208,11.4874521 -12.808522,4.727361 -0.774262,-1.980388 -1.598839,-3.295613 -2.415873,-4.117578 0.0015,6.9e-4 0.0032,0.0014 0.0047,0.0021 0,0 0.36109,-3.050029 -0.745174,-3.408061 -0.671575,-0.217347 -1.578715,1.411801 -1.578715,1.411801 0,0 -0.651001,-1.437836 -1.285193,-1.501717 z" />
    <g
       id="g850"
       transform="matrix(1.1151807,0,0,1.1151807,-2.0483578,-5.8213061)"
       style="stroke:none">
      <path
         style="fill:#ff6600;fill-opacity:1;stroke:none;stroke-width:0.21255px;stroke-linecap:butt;stroke-linejoin:miter;stroke-opacity:1"
         d="m 15.981952,11.227647 -1.997099,1.554483 2.65145,0.302623 z"
         id="path106" />
      <path
         id="path10534"
         style="color:#000000;font-style:normal;font-variant:normal;font-weight:normal;font-stretch:normal;font-size:medium;line-height:normal;font-family:sans-serif;font-variant-ligatures:normal;font-variant-position:normal;font-variant-caps:normal;font-variant-numeric:normal;font-variant-alternates:normal;font-variant-east-asian:normal;font-feature-settings:normal;font-variation-settings:normal;text-indent:0;text-align:start;text-decoration:none;text-decoration-line:none;text-decoration-style:solid;text-decoration-color:#000000;letter-spacing:normal;word-spacing:normal;text-transform:none;writing-mode:lr-tb;direction:ltr;text-orientation:mixed;dominant-baseline:auto;baseline-shift:baseline;text-anchor:start;white-space:normal;shape-padding:0;shape-margin:0;inline-size:0;clip-rule:nonzero;display:inline;overflow:visible;visibility:visible;isolation:auto;mix-blend-mode:normal;color-interpolation:sRGB;color-interpolation-filters:linearRGB;solid-color:#000000;solid-opacity:1;vector-effect:none;fill:#ff6600;fill-opacity:1;fill-rule:nonzero;stroke:none;stroke-width:0.803342;stroke-linecap:square;stroke-linejoin:miter;stroke-miterlimit:4;stroke-dasharray:none;stroke-dashoffset:0;stroke-opacity:1;color-rendering:auto;image-rendering:auto;shape-rendering:auto;text-rendering:auto;enable-background:accumulate;stop-color:#000000"
         d="m 29.739163,31.669384 -0.958965,0.109599 0.05521,0.478656 0.283954,2.471302 0.03279,0.286861 -1.12336,1.476638 -0.29184,0.382766 0.767172,0.583678 0.291841,-0.382759 0.515184,-0.677088 0.102955,0.896699 0.05521,0.480303 0.956891,-0.111659 -0.0548,-0.478244 -0.127032,-1.110907 0.876769,0.531792 0.412645,0.249494 0.500655,-0.823628 -0.412645,-0.251157 -1.515664,-0.917869 -0.02823,-0.244931 -0.283953,-2.47089 z" />
      <path
         id="path967"
         style="color:#000000;font-style:normal;font-variant:normal;font-weight:normal;font-stretch:normal;font-size:medium;line-height:normal;font-family:sans-serif;font-variant-ligatures:normal;font-variant-position:normal;font-variant-caps:normal;font-variant-numeric:normal;font-variant-alternates:normal;font-variant-east-asian:normal;font-feature-settings:normal;font-variation-settings:normal;text-indent:0;text-align:start;text-decoration:none;text-decoration-line:none;text-decoration-style:solid;text-decoration-color:#000000;letter-spacing:normal;word-spacing:normal;text-transform:none;writing-mode:lr-tb;direction:ltr;text-orientation:mixed;dominant-baseline:auto;baseline-shift:baseline;text-anchor:start;white-space:normal;shape-padding:0;shape-margin:0;inline-size:0;clip-rule:nonzero;display:inline;overflow:visible;visibility:visible;isolation:auto;mix-blend-mode:normal;color-interpolation:sRGB;color-interpolation-filters:linearRGB;solid-color:#000000;solid-opacity:1;vector-effect:none;fill:#ff6600;fill-opacity:1;fill-rule:nonzero;stroke:none;stroke-width:0.803342;stroke-linecap:square;stroke-linejoin:miter;stroke-miterlimit:4;stroke-dasharray:none;stroke-dashoffset:0;stroke-opacity:1;color-rendering:auto;image-rendering:auto;shape-rendering:auto;text-rendering:auto;enable-background:accumulate;stop-color:#000000"
         d="m 24.855919,31.15668 -0.124126,0.466189 -0.696185,2.633214 -0.0631,0.237882 -0.01121,0.04196 -1.584161,0.964361 -0.410986,0.251157 0.500655,0.823627 0.412646,-0.251149 0.726074,-0.442952 -0.230401,0.873034 -0.123711,0.465778 0.931982,0.246594 0.123711,-0.466197 0.285614,-1.080186 0.624366,0.815335 0.29184,0.38275 0.765926,-0.587004 -0.29184,-0.382758 -1.078525,-1.408137 0.0631,-0.237882 0.696185,-2.633206 0.124126,-0.466197 z" />
      <path
         id="path10487"
         style="fill:#ffffff;fill-opacity:1;stroke:none;stroke-width:0;stroke-linecap:butt;stroke-linejoin:miter;stroke-miterlimit:4;stroke-dasharray:none;stroke-opacity:1"
         d="m 19.028225,7.7579355 c -1.733496,0.054723 -3.056602,2.0899859 -3.046272,3.4398215 -0.07676,2.0391 1.706937,3.420476 1.575443,5.263516 -0.15024,1.417317 -3.116615,12.337592 6.766726,13.968928 0.123826,0.623028 0.358966,1.313376 0.812837,1.438866 0.595389,0.164575 1.363454,-0.680353 1.790069,-1.227976 0.273195,0.0046 0.540203,0.0046 0.801628,4.28e-4 0.314582,0.596403 0.951237,1.627869 1.582916,1.562572 0.612761,-0.0634 1.019907,-1.124282 1.218426,-1.790071 9.421257,-1.488567 8.187324,-9.676426 8.187322,-9.676426 C 40.96952,16.135451 38.73619,10.059189 34.869005,8.2394944 35.071358,16.396083 25.615629,18.540749 23.383422,12.478868 21.972885,8.8710354 20.3765,7.7153729 19.028225,7.7579355 Z" />
      <ellipse
         ry="0.74316442"
         rx="0.72290444"
         cy="10.616203"
         cx="17.845135"
         id="path10497"
         style="fill:#1a1a1a;fill-opacity:1;stroke:none;stroke-width:0.359337;stroke-miterlimit:4;stroke-dasharray:none;stroke-opacity:1" />
      <path
         id="path10511"
         d="m 16.449152,13.049666 c -0.933898,-0.02964 -1.096766,2.632805 0.0056,2.803088 1.102557,0.170284 1.018087,-0.843577 1.018087,-0.843577 -0.05969,-0.913813 -0.567599,-1.945034 -1.02371,-1.959511 z"
         style="fill:#ff0000;fill-opacity:1;stroke:none;stroke-width:0.21255px;stroke-linecap:butt;stroke-linejoin:miter;stroke-opacity:1" />
      <path
         id="path10526"
         d="m 16.405072,9.6738754 c 0,0 -1.137969,-1.8272404 -0.562208,-2.4245467 0.321577,-0.3336187 1.364808,0.2640652 1.364808,0.2640652 0,0 0.02079,-1.7214735 0.663964,-1.8562525 0.601608,-0.1260697 1.26589,1.3408764 1.26589,1.3408764 0,0 0.813416,-1.4605164 1.415627,-1.2656171 0.992005,0.3210521 0.668223,3.0557847 0.668223,3.0557847 -1.165124,-0.549281 -3.445543,-1.0942807 -4.816272,0.88569 z"
         style="fill:#ff0000;stroke:none;stroke-width:0.21255px;stroke-linecap:butt;stroke-linejoin:miter;stroke-opacity:1" />
      <path
         id="path10656"
         d="m 35.56721,24.855173 -2.960339,-1.222525 3.74185,-1.268519 -3.994646,-1.201026 3.023419,-1.146544 C 16.66822,11.661496 13.258223,32.949033 35.56721,24.855173 Z"
         style="fill:#cccccc;stroke:none;stroke-width:0.529167;stroke-linecap:butt;stroke-linejoin:miter;stroke-miterlimit:4;stroke-dasharray:none;stroke-opacity:1" />
      <circle
         style="fill:#ffffff;fill-opacity:1;stroke:none;stroke-width:0.241002;stroke-miterlimit:4;stroke-dasharray:none"
         id="path1002"
         cx="17.818296"
         cy="10.614895"
         r="0.28984314" />
    </g>
  </g>
</svg>
